<?xml version="1.0" standalone="no"?>
<!DOCTYPE svg PUBLIC "-//W3C//DTD SVG 20010904//EN"
 "http://www.w3.org/TR/2001/REC-SVG-20010904/DTD/svg10.dtd">
<svg version="1.0" xmlns="http://www.w3.org/2000/svg"
 width="229.000000pt" height="210.000000pt" viewBox="0 0 229.000000 210.000000"
 preserveAspectRatio="xMidYMid meet">

<g transform="translate(0.000000,210.000000) scale(0.100000,-0.100000)"
fill="#000000" stroke="none">
<path d="M279 2081 c-93 -36 -201 -132 -253 -222 l-26 -46 0 -760 0 -760 38
-59 c55 -83 131 -150 220 -192 l77 -37 782 -3 c770 -2 783 -2 845 18 126 42
234 136 293 254 l35 69 0 714 0 715 -37 72 c-49 92 -131 174 -219 217 l-69 34
-820 2 c-770 2 -823 1 -866 -16z m479 -471 l73 -33 32 31 c18 18 43 32 55 32
22 0 22 0 20 -157 -3 -147 -4 -158 -22 -158 -21 0 -24 4 -59 85 -31 73 -78
125 -141 158 -91 47 -246 32 -314 -31 -58 -54 -69 -135 -26 -187 37 -43 67
-57 215 -95 174 -45 258 -85 319 -151 56 -62 79 -120 87 -221 22 -272 -138
-436 -410 -420 -78 4 -99 9 -170 45 l-82 41 -35 -35 c-20 -19 -46 -34 -58 -34
-22 0 -22 2 -22 160 0 160 0 160 23 160 18 0 26 -10 40 -49 38 -108 125 -196
220 -222 71 -20 185 -15 245 11 114 49 160 159 110 260 -30 58 -86 89 -239
128 -204 53 -313 122 -362 230 -32 70 -31 227 1 297 29 63 83 120 144 151 68
35 112 43 203 40 66 -2 93 -8 153 -36z m1070 15 c83 -20 137 -48 190 -99 66
-63 86 -107 86 -196 1 -105 -35 -166 -140 -238 -76 -52 -273 -92 -451 -92
l-53 0 0 -235 0 -235 90 0 c89 0 90 0 90 -25 l0 -25 -285 0 -285 0 0 25 c0 24
2 25 75 25 l75 0 0 530 0 530 -75 0 c-73 0 -75 1 -75 25 l0 25 348 0 c271 0
361 -4 410 -15z"/>
<path d="M1460 1320 l0 -270 80 0 c114 0 178 16 216 54 44 44 58 100 58 237 0
102 -3 121 -25 165 -35 72 -66 84 -211 84 l-118 0 0 -270z"/>
</g>
</svg>
